<svg width="54" height="54" viewBox="0 0 54 54" fill="none" xmlns="http://www.w3.org/2000/svg">
<path d="M36.056 37.1828C38.9253 33.509 40.246 28.8597 39.7364 24.226C39.2269 19.5924 36.9274 15.3412 33.3283 12.3787C29.7291 9.4162 25.1151 7.9769 20.4699 8.36764C15.8248 8.75838 11.5161 10.9483 8.46239 14.4704C5.52306 17.8571 3.96411 22.2249 4.09482 26.7074C4.22553 31.1898 6.03633 35.4594 9.16801 38.6691C12.2997 41.8788 16.5234 43.794 21.0013 44.035C25.4792 44.2759 29.884 42.8249 33.342 39.9697C33.3954 39.9256 33.4396 39.8714 33.472 39.8101C33.5044 39.7489 33.5245 39.6819 33.531 39.6129C33.5375 39.544 33.5304 39.4744 33.51 39.4082C33.4896 39.342 33.4564 39.2804 33.4123 39.227C33.3681 39.1737 33.3139 39.1295 33.2527 39.0971C33.1915 39.0647 33.1244 39.0446 33.0555 39.0381C32.9865 39.0316 32.9169 39.0387 32.8507 39.0591C32.7845 39.0794 32.723 39.1126 32.6696 39.1568C29.4159 41.8449 25.2707 43.2116 21.0563 42.9857C16.8419 42.7598 12.8665 40.9577 9.91887 37.9372C6.97126 34.9167 5.26692 30.8984 5.14403 26.6798C5.02115 22.4611 6.48872 18.3505 9.25551 15.1635C10.7653 13.4104 12.623 11.9903 14.7107 10.9934C16.7985 9.99649 19.0707 9.44448 21.3832 9.37242C24.6206 9.25983 27.8218 10.0846 30.6018 11.7475C33.3818 13.4104 35.6225 15.8408 37.0545 18.7466C38.4865 21.6523 39.0489 24.9098 38.6741 28.1275C38.2993 31.3452 37.0033 34.3862 34.9418 36.885C34.8581 36.9861 34.8151 37.1147 34.8213 37.2458C34.8274 37.3769 34.8823 37.501 34.9751 37.5938L44.1551 46.7738C44.3664 46.9858 44.485 47.2728 44.485 47.5721C44.485 47.8714 44.3664 48.1585 44.1551 48.3705C43.9401 48.5758 43.6542 48.6904 43.3569 48.6904C43.0596 48.6904 42.7738 48.5758 42.5587 48.3705L35.3261 41.1383C35.2266 41.0423 35.0934 40.9892 34.9551 40.9904C34.8169 40.9917 34.6846 41.0472 34.5869 41.145C34.4891 41.2428 34.4337 41.3751 34.4325 41.5133C34.4314 41.6516 34.4846 41.7848 34.5807 41.8842L41.8129 49.1164C42.224 49.5182 42.7769 49.7418 43.3517 49.7385C43.9266 49.7352 44.4769 49.5053 44.8834 49.0988C45.2898 48.6923 45.5196 48.1419 45.5228 47.5671C45.526 46.9922 45.3025 46.4393 44.9006 46.0283L36.056 37.1828Z" fill="#3E3E3E"/>
<path d="M11.6117 16.6942C11.559 16.6492 11.498 16.615 11.4322 16.5936C11.3663 16.5722 11.2969 16.564 11.2278 16.5695C11.1588 16.5749 11.0915 16.5939 11.0298 16.6254C10.9681 16.6568 10.9133 16.7002 10.8683 16.7529C8.50674 19.5359 7.27701 23.1046 7.42289 26.7517C7.56878 30.3987 9.07963 33.8579 11.656 36.4434C14.2323 39.0289 17.686 40.552 21.3325 40.7108C24.979 40.8697 28.5521 39.6527 31.3435 37.301C34.1349 34.9493 35.9409 31.6347 36.4033 28.0141C36.8658 24.3936 35.9511 20.7314 33.8404 17.7536C31.7298 14.7757 28.5774 12.6996 25.008 11.9367C21.4387 11.1739 17.713 11.7799 14.5694 13.6348C14.4525 13.7076 14.3688 13.8232 14.336 13.957C14.3032 14.0908 14.3241 14.232 14.3941 14.3506C14.4642 14.4692 14.5778 14.5557 14.7108 14.5915C14.8437 14.6274 14.9854 14.6099 15.1056 14.5427C18.0245 12.8199 21.4841 12.2568 24.7987 12.9649C28.1132 13.673 31.0407 15.6006 33.0009 18.3656C34.961 21.1306 35.8107 24.5312 35.3815 27.8933C34.9523 31.2553 33.2756 34.3334 30.6836 36.5173C28.0917 38.7012 24.7738 39.8316 21.3877 39.6842C18.0016 39.5369 14.7944 38.1227 12.4019 35.7219C10.0094 33.3212 8.60635 30.1091 8.47077 26.7225C8.33518 23.3359 9.477 20.0219 11.6699 17.4376C11.7607 17.3313 11.8056 17.1932 11.7947 17.0538C11.7838 16.9145 11.7179 16.7851 11.6117 16.6942Z" fill="#3E3E3E"/>
<path d="M12.8891 14.7954C12.8047 14.8624 12.7214 14.9306 12.6389 15C12.5819 15.0431 12.5342 15.0972 12.4988 15.1592C12.4633 15.2212 12.4408 15.2898 12.4327 15.3608C12.4245 15.4317 12.4308 15.5036 12.4513 15.5721C12.4718 15.6405 12.5059 15.7041 12.5517 15.7589C12.5975 15.8138 12.6539 15.8587 12.7176 15.8911C12.7813 15.9235 12.8509 15.9426 12.9221 15.9472C12.9934 15.9519 13.0649 15.942 13.1323 15.9182C13.1996 15.8944 13.2614 15.8572 13.3139 15.8088C13.3902 15.7452 13.4669 15.6825 13.5443 15.6206C13.6537 15.5335 13.7241 15.4065 13.7398 15.2675C13.7556 15.1286 13.7156 14.989 13.6285 14.8796C13.5853 14.8254 13.5319 14.7802 13.4714 14.7467C13.4108 14.7131 13.3442 14.6919 13.2754 14.684C13.1364 14.6683 12.9969 14.7083 12.8874 14.7954H12.8891Z" fill="#3E3E3E"/>
<path d="M15.5052 23.8449H14.1775C13.8097 23.8453 13.457 23.9916 13.1969 24.2518C12.9368 24.5119 12.7904 24.8645 12.79 25.2324V27.1308C12.7904 27.4987 12.9368 27.8514 13.1969 28.1115C13.457 28.3716 13.8097 28.5179 14.1775 28.5184H15.5047C15.6446 28.5184 15.7787 28.4628 15.8776 28.3639C15.9765 28.265 16.0321 28.1309 16.0321 27.991C16.0321 27.8512 15.9765 27.7171 15.8776 27.6182C15.7787 27.5193 15.6446 27.4637 15.5047 27.4637H14.1775C14.0893 27.4636 14.0047 27.4285 13.9423 27.3661C13.8799 27.3037 13.8448 27.2191 13.8447 27.1308V25.2324C13.8447 25.1887 13.8533 25.1454 13.87 25.105C13.8867 25.0646 13.9112 25.028 13.9422 24.997C13.9731 24.9661 14.0098 24.9416 14.0501 24.9249C14.0905 24.9082 14.1338 24.8996 14.1775 24.8996H15.5047C15.7796 24.8977 16.0478 24.8149 16.2758 24.6614C16.5038 24.508 16.6815 24.2907 16.7867 24.0367C16.8919 23.7828 16.9199 23.5035 16.8671 23.2338C16.8144 22.964 16.6833 22.7158 16.4902 22.5202L15.5516 21.5815C15.4892 21.519 15.4542 21.4344 15.4542 21.3461C15.4542 21.2578 15.4892 21.1732 15.5516 21.1107L16.8952 19.767C16.9586 19.7065 17.0428 19.6727 17.1304 19.6727C17.2181 19.6727 17.3023 19.7065 17.3656 19.767L18.3047 20.7053C18.5004 20.8982 18.7486 21.0292 19.0182 21.0818C19.2879 21.1345 19.5671 21.1065 19.821 21.0013C20.0748 20.8961 20.292 20.7185 20.4455 20.4906C20.5989 20.2626 20.6818 19.9945 20.6837 19.7198V18.3934C20.6838 18.3052 20.7189 18.2206 20.7813 18.1582C20.8437 18.0958 20.9283 18.0607 21.0165 18.0605H22.915C23.0032 18.0607 23.0878 18.0958 23.1502 18.1582C23.2126 18.2206 23.2477 18.3052 23.2478 18.3934V19.7206C23.2499 19.9954 23.3328 20.2634 23.4863 20.4913C23.6398 20.7192 23.857 20.8968 24.1109 21.002C24.3647 21.1071 24.644 21.1351 24.9136 21.0825C25.1833 21.0299 25.4315 20.899 25.6272 20.7061L26.5659 19.7674C26.6293 19.707 26.7135 19.6733 26.8011 19.6733C26.8887 19.6733 26.9729 19.707 27.0363 19.7674L28.3799 21.1115C28.4109 21.1424 28.4355 21.179 28.4522 21.2194C28.469 21.2598 28.4776 21.303 28.4776 21.3467C28.4776 21.3904 28.469 21.4337 28.4522 21.4741C28.4355 21.5144 28.4109 21.5511 28.3799 21.5819L27.4413 22.5206C27.3424 22.6195 27.2868 22.7537 27.2868 22.8935C27.2868 23.0334 27.3424 23.1676 27.4413 23.2665C27.5402 23.3654 27.6743 23.421 27.8142 23.421C27.9541 23.421 28.0882 23.3654 28.1872 23.2665L29.1258 22.3282C29.2547 22.1994 29.3569 22.0465 29.4267 21.8781C29.4964 21.7098 29.5323 21.5294 29.5323 21.3472C29.5323 21.1649 29.4964 20.9845 29.4267 20.8162C29.3569 20.6478 29.2547 20.4949 29.1258 20.3661L27.7821 19.0224C27.5179 18.7701 27.1666 18.6294 26.8013 18.6294C26.436 18.6294 26.0847 18.7701 25.8204 19.0224L24.8818 19.9611C24.8333 20.0084 24.7716 20.0398 24.7049 20.0514C24.6382 20.0629 24.5695 20.0539 24.508 20.0256C24.4475 20.001 24.3957 19.9589 24.3592 19.9047C24.3227 19.8506 24.3031 19.7868 24.3029 19.7215V18.3934C24.3025 18.0255 24.1562 17.6729 23.8961 17.4128C23.6359 17.1526 23.2833 17.0063 22.9154 17.0059H21.017C20.6491 17.0063 20.2964 17.1526 20.0363 17.4128C19.7762 17.6729 19.6299 18.0255 19.6294 18.3934V19.7206C19.6287 19.788 19.6076 19.8535 19.569 19.9087C19.5304 19.9638 19.476 20.0061 19.413 20.0299C19.3526 20.0555 19.2859 20.0626 19.2214 20.0502C19.1569 20.0378 19.0976 20.0065 19.051 19.9602L18.1119 19.022C17.8477 18.7697 17.4964 18.629 17.1311 18.629C16.7657 18.629 16.4145 18.7697 16.1502 19.022L14.8078 20.3652C14.548 20.6257 14.4022 20.9785 14.4022 21.3463C14.4022 21.7141 14.548 22.067 14.8078 22.3274L15.7465 23.2661C15.7938 23.3145 15.8253 23.3762 15.8368 23.4429C15.8484 23.5097 15.8394 23.5783 15.811 23.6398C15.7861 23.7005 15.7437 23.7523 15.6893 23.7889C15.6348 23.8254 15.5707 23.8449 15.5052 23.8449Z" fill="#3E3E3E"/>
<path d="M28.4297 28.5188H29.757C30.1248 28.5183 30.4775 28.372 30.7376 28.1119C30.9977 27.8517 31.1441 27.4991 31.1445 27.1312V25.2328C31.1441 24.8649 30.9977 24.5122 30.7376 24.2521C30.4775 23.992 30.1248 23.8457 29.757 23.8452H28.4297C28.2899 23.8452 28.1558 23.9008 28.0569 23.9997C27.958 24.0986 27.9024 24.2327 27.9024 24.3726C27.9024 24.5124 27.958 24.6466 28.0569 24.7454C28.1558 24.8443 28.2899 24.8999 28.4297 24.8999H29.757C29.8007 24.8999 29.844 24.9085 29.8843 24.9252C29.9247 24.942 29.9614 24.9665 29.9923 24.9974C30.0232 25.0283 30.0478 25.065 30.0645 25.1054C30.0812 25.1458 30.0898 25.1891 30.0898 25.2328V27.1312C30.0897 27.2194 30.0546 27.304 29.9922 27.3664C29.9298 27.4288 29.8452 27.464 29.757 27.4641H28.4297C28.1551 27.4662 27.8871 27.5491 27.6593 27.7026C27.4315 27.8561 27.254 28.0733 27.1488 28.327C27.0437 28.5808 27.0157 28.8599 27.0682 29.1295C27.1207 29.3991 27.2515 29.6473 27.4442 29.843L28.3829 30.7821C28.4139 30.813 28.4384 30.8496 28.4552 30.89C28.472 30.9303 28.4806 30.9736 28.4806 31.0173C28.4806 31.061 28.472 31.1043 28.4552 31.1446C28.4384 31.185 28.4139 31.2217 28.3829 31.2525L27.0388 32.5983C26.9764 32.6606 26.8918 32.6956 26.8036 32.6956C26.7154 32.6956 26.6308 32.6606 26.5684 32.5983L25.6298 31.6596C25.4341 31.4668 25.1859 31.3358 24.9162 31.2832C24.6465 31.2306 24.3673 31.2586 24.1134 31.3638C23.8596 31.4689 23.6424 31.6465 23.4889 31.8744C23.3354 32.1023 23.2524 32.3704 23.2504 32.6451V33.9728C23.2503 34.061 23.2152 34.1455 23.1527 34.2079C23.0903 34.2702 23.0057 34.3052 22.9175 34.3052H21.0191C20.9309 34.3052 20.8463 34.2702 20.7839 34.2079C20.7215 34.1455 20.6863 34.061 20.6862 33.9728V32.6447C20.6843 32.3699 20.6015 32.1018 20.448 31.8739C20.2946 31.646 20.0774 31.4683 19.8235 31.3632C19.5697 31.258 19.2905 31.23 19.0208 31.2827C18.7511 31.3353 18.5029 31.4663 18.3073 31.6592L17.3665 32.5983C17.3041 32.6606 17.2195 32.6956 17.1313 32.6956C17.0431 32.6956 16.9585 32.6606 16.8961 32.5983L15.5524 31.2546C15.4901 31.1921 15.4551 31.1075 15.4551 31.0192C15.4551 30.9309 15.4901 30.8463 15.5524 30.7838L16.4911 29.8451C16.5401 29.7962 16.5789 29.738 16.6054 29.674C16.6319 29.61 16.6456 29.5415 16.6456 29.4722C16.6456 29.4029 16.6319 29.3343 16.6054 29.2704C16.5789 29.2064 16.5401 29.1482 16.4911 29.0993C16.4421 29.0503 16.384 29.0114 16.32 28.9849C16.256 28.9584 16.1874 28.9448 16.1182 28.9448C16.0489 28.9448 15.9803 28.9584 15.9163 28.9849C15.8523 29.0114 15.7942 29.0503 15.7452 29.0993L14.8078 30.0375C14.5481 30.2979 14.4022 30.6507 14.4022 31.0186C14.4022 31.3864 14.5481 31.7392 14.8078 31.9996L16.1515 33.3433C16.4119 33.6031 16.7646 33.7489 17.1324 33.7489C17.5001 33.7489 17.8529 33.6031 18.1132 33.3433L19.0523 32.4046C19.1008 32.3573 19.1625 32.3259 19.2292 32.3144C19.296 32.303 19.3646 32.3121 19.4261 32.3405C19.4865 32.3653 19.5382 32.4074 19.5746 32.4615C19.611 32.5157 19.6306 32.5794 19.6307 32.6447V33.9723C19.6313 34.3401 19.7776 34.6927 20.0377 34.9527C20.2979 35.2127 20.6505 35.359 21.0182 35.3595H22.9167C23.2845 35.359 23.6371 35.2127 23.8972 34.9527C24.1573 34.6927 24.3037 34.3401 24.3042 33.9723V32.6447C24.3051 32.5774 24.3263 32.512 24.3649 32.4569C24.4035 32.4019 24.4577 32.3597 24.5207 32.3359C24.5811 32.31 24.6479 32.3028 24.7124 32.3151C24.777 32.3274 24.8364 32.3587 24.883 32.4051L25.8217 33.3437C26.0821 33.6035 26.4348 33.7493 26.8026 33.7493C27.1703 33.7493 27.5231 33.6035 27.7834 33.3437L29.1271 32.0001C29.256 31.8713 29.3582 31.7183 29.428 31.55C29.4977 31.3816 29.5336 31.2012 29.5336 31.019C29.5336 30.8368 29.4977 30.6564 29.428 30.488C29.3582 30.3197 29.256 30.1667 29.1271 30.0379L28.1897 29.0993C28.1428 29.0506 28.1116 28.989 28.1001 28.9225C28.0886 28.8559 28.0973 28.7874 28.1252 28.7259C28.1497 28.6651 28.1917 28.6129 28.2459 28.576C28.3002 28.5391 28.3642 28.5192 28.4297 28.5188Z" fill="#3E3E3E"/>
<path d="M21.9674 29.8614C22.695 29.8613 23.4062 29.6455 24.0111 29.2412C24.616 28.8369 25.0875 28.2624 25.3659 27.5902C25.6442 26.9179 25.717 26.1783 25.575 25.4647C25.433 24.7511 25.0826 24.0957 24.5681 23.5812C24.0536 23.0668 23.3982 22.7165 22.6846 22.5746C21.971 22.4327 21.2313 22.5055 20.5591 22.784C19.8869 23.0624 19.3124 23.5339 18.9082 24.1389C18.504 24.7439 18.2883 25.4551 18.2883 26.1827C18.2894 27.158 18.6774 28.0932 19.3671 28.7828C20.0569 29.4725 20.992 29.8604 21.9674 29.8614ZM21.9674 23.5586C22.4864 23.5587 22.9937 23.7126 23.4252 24.001C23.8566 24.2894 24.1929 24.6993 24.3915 25.1788C24.59 25.6583 24.6419 26.1859 24.5406 26.6948C24.4393 27.2038 24.1894 27.6714 23.8224 28.0383C23.4554 28.4052 22.9878 28.6551 22.4788 28.7563C21.9698 28.8575 21.4422 28.8056 20.9627 28.6069C20.4833 28.4083 20.0735 28.072 19.7852 27.6405C19.4968 27.2089 19.343 26.7016 19.343 26.1827C19.3436 25.4868 19.6204 24.8196 20.1124 24.3276C20.6044 23.8356 21.2716 23.5588 21.9674 23.5582V23.5586Z" fill="#3E3E3E"/>
<path d="M48.3393 12.4129H46.7539C46.6532 12.4121 46.5551 12.3811 46.4723 12.3237C46.3895 12.2664 46.3259 12.1854 46.2898 12.0914C46.2509 12.0006 46.2401 11.9002 46.2586 11.8032C46.2772 11.7061 46.3244 11.6169 46.394 11.5468L47.5154 10.4255C47.8068 10.1339 47.9704 9.73849 47.9704 9.32626C47.9704 8.91402 47.8068 8.51866 47.5154 8.22706L45.9122 6.62183C45.6205 6.33061 45.2251 6.16706 44.8128 6.16706C44.4006 6.16706 44.0052 6.33061 43.7134 6.62183L42.5925 7.74275C42.5203 7.81377 42.4283 7.86126 42.3286 7.87895C42.2289 7.89665 42.1262 7.88373 42.0339 7.84189C41.9423 7.80498 41.8638 7.74152 41.8084 7.65966C41.7531 7.5778 41.7235 7.48127 41.7234 7.38247V5.79875C41.7229 5.38661 41.5589 4.99152 41.2675 4.70009C40.9761 4.40867 40.581 4.2447 40.1688 4.24414H37.9C37.4879 4.2447 37.0928 4.40867 36.8013 4.70009C36.5099 4.99152 36.3459 5.38661 36.3454 5.79875V7.38247C36.3431 7.48175 36.3119 7.57823 36.2558 7.66016C36.1997 7.74209 36.121 7.80595 36.0292 7.84398C35.9375 7.88201 35.8367 7.89257 35.739 7.87437C35.6414 7.85617 35.5512 7.81001 35.4793 7.74148L34.3579 6.62309C34.0662 6.33188 33.6708 6.16833 33.2585 6.16833C32.8463 6.16833 32.4509 6.33188 32.1591 6.62309L30.556 8.22833C30.4571 8.32724 30.4015 8.46139 30.4015 8.60127C30.4015 8.74114 30.4571 8.87529 30.556 8.9742C30.6549 9.07311 30.7891 9.12868 30.9289 9.12868C31.0688 9.12868 31.203 9.07311 31.3019 8.9742L32.9063 7.36728C33.0002 7.27369 33.1274 7.22114 33.26 7.22114C33.3926 7.22114 33.5198 7.27369 33.6137 7.36728L34.7347 8.48862C34.9541 8.70445 35.2322 8.8509 35.5343 8.90969C35.8364 8.96849 36.1492 8.93703 36.4335 8.81924C36.7178 8.70145 36.9612 8.50255 37.1333 8.24734C37.3053 7.99214 37.3984 7.69192 37.4009 7.38416V5.79875C37.4011 5.66623 37.4539 5.5392 37.5476 5.4455C37.6413 5.35179 37.7683 5.29905 37.9008 5.29883H40.1709C40.3031 5.29961 40.4296 5.35259 40.5228 5.44624C40.6161 5.53989 40.6685 5.6666 40.6688 5.79875V7.38247C40.6712 7.69032 40.7643 7.99064 40.9363 8.24593C41.1084 8.50123 41.3518 8.70019 41.6363 8.818C41.9207 8.9358 42.2335 8.96723 42.5357 8.90835C42.8379 8.84948 43.116 8.70291 43.3354 8.48694L44.4564 7.36559C44.5503 7.272 44.6775 7.21945 44.8101 7.21945C44.9427 7.21945 45.0699 7.272 45.1638 7.36559L46.767 8.97125C46.8606 9.06499 46.9132 9.19207 46.9132 9.32457C46.9132 9.45707 46.8606 9.58415 46.767 9.67789L45.649 10.7997C45.433 11.0191 45.2864 11.2973 45.2276 11.5995C45.1687 11.9017 45.2002 12.2146 45.318 12.499C45.4359 12.7835 45.6349 13.0269 45.8903 13.1989C46.1456 13.371 46.446 13.464 46.7539 13.4663H48.3393C48.4719 13.4664 48.599 13.5191 48.6928 13.6129C48.7866 13.7066 48.8394 13.8337 48.8396 13.9662V16.2376C48.8395 16.3703 48.7868 16.4975 48.693 16.5913C48.5992 16.6851 48.472 16.7379 48.3393 16.738H46.7539C46.4532 16.736 46.1586 16.8226 45.9068 16.9869C45.6549 17.1512 45.457 17.3859 45.3376 17.6619C45.3322 17.6724 45.322 17.6956 45.3174 17.7066C45.197 17.9906 45.1642 18.3042 45.2233 18.607C45.2824 18.9098 45.4306 19.188 45.649 19.4059L46.7703 20.5273C46.864 20.6211 46.9166 20.7482 46.9166 20.8808C46.9166 21.0133 46.864 21.1405 46.7703 21.2343L45.1672 22.8374C45.0733 22.931 44.9461 22.9836 44.8135 22.9836C44.6809 22.9836 44.5537 22.931 44.4597 22.8374L43.3388 21.7161C43.1194 21.4988 42.8407 21.3512 42.5378 21.2918C42.2348 21.2323 41.921 21.2637 41.6358 21.382C41.3505 21.5002 41.1066 21.7001 40.9346 21.9565C40.7625 22.2128 40.6701 22.5143 40.6688 22.8231V24.4085C40.6688 24.5484 40.7243 24.6825 40.8232 24.7814C40.9221 24.8803 41.0562 24.9358 41.1961 24.9358C41.336 24.9358 41.4701 24.8803 41.569 24.7814C41.6679 24.6825 41.7234 24.5484 41.7234 24.4085V22.8231C41.7242 22.7223 41.7554 22.6242 41.8128 22.5414C41.8702 22.4586 41.9513 22.3951 42.0453 22.359C42.1362 22.3202 42.2366 22.3094 42.3337 22.328C42.4307 22.3467 42.52 22.3939 42.59 22.4637L43.7109 23.5846C44.0027 23.8758 44.3981 24.0393 44.8103 24.0393C45.2225 24.0393 45.6179 23.8758 45.9097 23.5846L47.5128 21.9815C47.8042 21.6899 47.9679 21.2945 47.9679 20.8823C47.9679 20.47 47.8042 20.0747 47.5128 19.7831L46.3915 18.6617C46.3207 18.5894 46.2734 18.4974 46.2558 18.3977C46.2383 18.298 46.2513 18.1953 46.2932 18.1032C46.3305 18.0123 46.3939 17.9346 46.4753 17.8799C46.5568 17.8251 46.6528 17.7958 46.7509 17.7956H48.3363C48.7486 17.7952 49.1439 17.6312 49.4354 17.3397C49.7269 17.0481 49.8909 16.6529 49.8914 16.2406V13.9675C49.8908 13.5558 49.7272 13.1611 49.4363 12.8697C49.1454 12.5784 48.751 12.4141 48.3393 12.4129Z" fill="#FFD347"/>
<path d="M39.606 18.2901C39.5367 18.301 39.4703 18.3256 39.4106 18.3625C39.351 18.3993 39.2993 18.4477 39.2585 18.5048C39.2178 18.5619 39.1889 18.6266 39.1734 18.695C39.158 18.7634 39.1563 18.8342 39.1686 18.9033C39.1809 18.9724 39.2068 19.0383 39.2448 19.0972C39.2829 19.1561 39.3323 19.2069 39.3902 19.2464C39.4481 19.286 39.5133 19.3137 39.582 19.3277C39.6508 19.3418 39.7216 19.342 39.7904 19.3284C40.4928 19.2027 41.1527 18.9039 41.7105 18.459C42.2683 18.014 42.7064 17.4371 42.9851 16.7803C43.2639 16.1234 43.3744 15.4075 43.3068 14.6972C43.2392 13.9869 42.9956 13.3046 42.598 12.7122C42.2004 12.1197 41.6614 11.6357 41.0297 11.304C40.3979 10.9723 39.6935 10.8033 38.98 10.8124C38.2666 10.8214 37.5666 11.0082 36.9435 11.3558C36.3204 11.7034 35.7938 12.2009 35.4113 12.8032C35.3385 12.9212 35.3151 13.0631 35.3461 13.1982C35.377 13.3333 35.46 13.4508 35.5769 13.5252C35.6939 13.5996 35.8354 13.625 35.971 13.5958C36.1065 13.5667 36.2251 13.4853 36.3011 13.3694C36.5895 12.9151 36.9866 12.5399 37.4565 12.2777C37.9264 12.0155 38.4543 11.8745 38.9923 11.8676C39.5304 11.8607 40.0617 11.9881 40.5382 12.2381C41.0147 12.4882 41.4213 12.8531 41.7213 13.2998C42.0212 13.7466 42.2051 14.261 42.2563 14.7967C42.3074 15.3324 42.2242 15.8724 42.0142 16.3678C41.8042 16.8632 41.474 17.2985 41.0534 17.6342C40.6329 17.9699 40.1357 18.1951 39.606 18.2901Z" fill="#FFD347"/>
</svg>
