<svg width="54" height="54" viewBox="0 0 54 54" fill="none" xmlns="http://www.w3.org/2000/svg">
<path d="M43.7168 19.8834H40.3171L41.3414 8.12265C41.3433 8.10135 41.3436 8.08036 41.3437 8.05937C41.3437 8.05758 41.3439 8.05589 41.3439 8.0541C41.3439 8.05378 41.3439 8.05357 41.3439 8.05325C41.3439 7.73315 41.1508 7.45102 40.867 7.32836C40.8646 7.32731 40.8622 7.32604 40.8598 7.32499C40.8422 7.31761 40.824 7.31128 40.8056 7.30516C40.7987 7.30295 40.7922 7.3002 40.7854 7.29809C40.7704 7.29356 40.755 7.28997 40.7397 7.28628C40.7289 7.28375 40.7186 7.28069 40.7077 7.27858C40.6943 7.27595 40.6804 7.27426 40.6667 7.27225C40.6538 7.27036 40.6412 7.26814 40.6282 7.26698C40.626 7.26677 40.624 7.26635 40.6218 7.26614C40.6078 7.26487 40.5941 7.26508 40.5803 7.26455C40.571 7.26424 40.562 7.26318 40.5527 7.26318H40.5428C40.5419 7.26318 40.5411 7.26318 40.5403 7.26318H24.3644C23.9278 7.26318 23.5734 7.61756 23.5734 8.0542C23.5734 8.48979 23.9278 8.84522 24.3644 8.84522H39.6905L38.1162 26.92C38.116 26.9214 38.116 26.9227 38.1158 26.9241L37.7186 31.4847H10.2324L10.6921 26.7388H15.9256C16.3626 26.7388 16.7167 26.3846 16.7167 25.9478C16.7167 25.5109 16.3626 25.1568 15.9256 25.1568H10.8455L11.8162 15.1377H20.1457C20.5826 15.1377 20.9367 14.7836 20.9367 14.3467C20.9367 13.9099 20.5826 13.5557 20.1457 13.5557H11.9696L12.4261 8.84522H21.2004C21.6359 8.84522 21.9914 8.48979 21.9914 8.0542C21.9914 7.61756 21.6359 7.26318 21.2004 7.26318H11.7081C11.7077 7.26318 11.7074 7.26329 11.707 7.26329C11.3354 7.26318 11.0131 7.52475 10.9351 7.88735C10.9346 7.88999 10.9337 7.89252 10.9331 7.89516C10.9291 7.91488 10.9265 7.93502 10.9239 7.95527C10.9231 7.96171 10.9218 7.96782 10.9211 7.97426C10.921 7.97552 10.9207 7.97668 10.9206 7.97795L10.3802 13.5557H0.791019C0.35406 13.5557 0 13.9099 0 14.3467C0 14.7836 0.35406 15.1377 0.791019 15.1377H10.2268L9.25608 25.1568H6.43383C5.99687 25.1568 5.64281 25.5109 5.64281 25.9478C5.64281 26.3846 5.99687 26.7388 6.43383 26.7388H9.10283L8.57422 32.1938C8.57412 32.1946 8.57412 32.1955 8.57401 32.1962L7.75673 40.6315C7.75662 40.6325 7.75652 40.6335 7.75641 40.6344L7.7561 40.6374C7.75504 40.6484 7.75515 40.6591 7.75452 40.6701C7.75378 40.6847 7.7523 40.6989 7.7523 40.7137C7.7523 40.7143 7.75241 40.7149 7.75241 40.7157C7.75241 40.736 7.75388 40.7561 7.75536 40.7761C7.75599 40.7825 7.75578 40.7891 7.75652 40.7954C7.75863 40.8159 7.76211 40.836 7.7658 40.8561C7.76685 40.862 7.76738 40.868 7.76854 40.8738C7.7716 40.889 7.77593 40.9036 7.77993 40.9185C7.78268 40.9289 7.78489 40.9396 7.78805 40.9498C7.789 40.9527 7.79027 40.9554 7.79111 40.9584C7.8294 41.0761 7.89437 41.1818 7.97916 41.268C7.98075 41.2696 7.98201 41.2714 7.98359 41.2729C7.99203 41.2813 8.00121 41.2889 8.01007 41.2969C8.06459 41.3469 8.12619 41.3893 8.19358 41.4225C8.20761 41.4295 8.22143 41.4368 8.23577 41.4428C8.2401 41.4447 8.24474 41.4459 8.24917 41.4476C8.26899 41.4555 8.28893 41.4631 8.30949 41.4696C8.31139 41.4701 8.31318 41.4704 8.31508 41.4711C8.3385 41.478 8.36212 41.4841 8.38628 41.4891C8.38944 41.4897 8.39271 41.4899 8.39577 41.4906C8.41876 41.4949 8.44186 41.4986 8.46538 41.5009C8.4659 41.5009 8.46633 41.501 8.46685 41.5011C8.4928 41.5036 8.51853 41.5049 8.54406 41.5049C8.54437 41.5049 8.5448 41.5048 8.54522 41.5048H12.0666C12.4555 44.453 14.9831 46.7364 18.0359 46.7364C21.0885 46.7364 23.616 44.453 24.0049 41.5048H36.6927C37.0817 44.453 39.6092 46.7364 42.6619 46.7364C45.7145 46.7364 48.2422 44.453 48.6312 41.5048H52.1534C52.154 41.5048 52.1546 41.5049 52.1551 41.5049C52.1815 41.5049 52.2075 41.5033 52.2332 41.5008C52.2378 41.5004 52.2423 41.4994 52.2469 41.4989C52.2675 41.4965 52.2879 41.4936 52.308 41.4896C52.3166 41.4879 52.3249 41.4856 52.3335 41.4836C52.349 41.48 52.3646 41.4762 52.3798 41.4717C52.3901 41.4686 52.4001 41.465 52.4103 41.4616C52.4232 41.4571 52.4362 41.4525 52.449 41.4473C52.4599 41.443 52.4704 41.4383 52.481 41.4335C52.4926 41.4281 52.5042 41.4226 52.5155 41.4168C52.5263 41.4114 52.5366 41.4057 52.547 41.3998C52.5578 41.3934 52.5686 41.3869 52.5792 41.3801C52.5891 41.3738 52.5991 41.3674 52.6085 41.3606C52.6193 41.3531 52.6295 41.3452 52.64 41.3372C52.6486 41.3304 52.6574 41.3236 52.6658 41.3164C52.6767 41.3073 52.6869 41.2977 52.6973 41.2878C52.7044 41.281 52.7119 41.2742 52.7189 41.2671C52.7298 41.2559 52.7403 41.2441 52.7507 41.2322C52.7563 41.2257 52.7621 41.2195 52.7675 41.213C52.7791 41.1986 52.7896 41.1839 52.8002 41.169C52.8038 41.1638 52.8078 41.159 52.8113 41.1537C52.8241 41.1344 52.8363 41.1146 52.8474 41.0941C52.8483 41.0928 52.8491 41.0917 52.8497 41.0903C52.8616 41.0684 52.8725 41.0459 52.8823 41.0227C52.8851 41.0161 52.8872 41.0092 52.8898 41.0026C52.8963 40.9862 52.9026 40.9699 52.908 40.9529C52.9115 40.9419 52.914 40.9306 52.917 40.9196C52.9205 40.9064 52.9242 40.8933 52.9272 40.8799C52.9298 40.868 52.9315 40.8557 52.9335 40.8436C52.9353 40.833 52.9376 40.8225 52.939 40.8117C52.9725 40.5429 53.5919 35.5733 53.8686 32.3599C53.8689 32.3568 53.869 32.3537 53.8693 32.3506C53.949 31.4243 54 30.6442 54 30.1667C54 24.4965 49.387 19.8834 43.7168 19.8834ZM40.1792 21.4657H43.4153L43.002 26.2114H39.7659L40.1792 21.4657ZM18.0361 45.1542C15.5874 45.1542 13.5953 43.1621 13.5953 40.7136C13.5953 38.265 15.5875 36.2729 18.0361 36.2729C20.4846 36.2729 22.4767 38.265 22.4767 40.7136C22.4767 43.1621 20.4846 45.1542 18.0361 45.1542ZM42.6619 45.1542C40.2133 45.1542 38.2213 43.1621 38.2213 40.7136C38.2213 38.265 40.2134 36.2729 42.6619 36.2729C45.1105 36.2729 47.1026 38.265 47.1026 40.7136C47.1026 43.1621 45.1105 45.1542 42.6619 45.1542ZM51.4545 39.9222H48.6314C48.2427 36.9738 45.715 34.6903 42.6621 34.6903C39.6094 34.6903 37.0817 36.974 36.6929 39.9222H24.0052C23.6164 36.9738 21.0889 34.6903 18.0361 34.6903C14.9833 34.6903 12.4555 36.974 12.0667 39.9222H9.41481L10.0792 33.0663H38.4435V33.0667C38.4439 33.0667 38.4443 33.0667 38.4447 33.0667C38.4711 33.0667 38.4974 33.0653 38.5233 33.0626C38.5282 33.0622 38.533 33.0612 38.5378 33.0605C38.5585 33.0581 38.579 33.0551 38.5993 33.0511C38.608 33.0493 38.6166 33.0469 38.6252 33.0448C38.6411 33.041 38.6569 33.0373 38.6723 33.0327C38.6828 33.0295 38.6928 33.0257 38.7031 33.0221C38.7164 33.0175 38.7297 33.013 38.7425 33.0077C38.7536 33.0031 38.7642 32.9981 38.775 32.993C38.7867 32.9876 38.7984 32.9823 38.8097 32.9764C38.8205 32.9707 38.831 32.9645 38.8417 32.9584C38.8525 32.9521 38.8633 32.9457 38.8738 32.9389C38.8841 32.9323 38.8938 32.9253 38.9036 32.9183C38.914 32.911 38.9241 32.9034 38.9343 32.8955C38.9433 32.8882 38.9523 32.8807 38.9612 32.873C38.9712 32.8643 38.981 32.8555 38.9905 32.8463C38.9985 32.8386 39.0065 32.8307 39.0143 32.8226C39.0238 32.8127 39.033 32.8024 39.042 32.792C39.0491 32.7838 39.0561 32.7755 39.0628 32.7671C39.0716 32.756 39.0799 32.7446 39.0881 32.7331C39.0944 32.7245 39.1004 32.7158 39.1063 32.707C39.114 32.6951 39.1214 32.6828 39.1284 32.6704C39.1338 32.6611 39.1393 32.6518 39.1441 32.6423C39.1508 32.6299 39.1565 32.6172 39.1625 32.6045C39.1671 32.5942 39.1719 32.5842 39.1761 32.5737C39.1813 32.5612 39.1856 32.5485 39.1901 32.5357C39.194 32.5244 39.1981 32.5131 39.2016 32.5015C39.2051 32.4893 39.208 32.4767 39.2111 32.4643C39.2142 32.4517 39.2176 32.4393 39.22 32.4265C39.2224 32.4141 39.2239 32.4014 39.2258 32.3888C39.2277 32.3757 39.2299 32.3628 39.2312 32.3496C39.2314 32.3477 39.2318 32.3459 39.2319 32.344L39.6284 27.793H43.7165C46.1401 27.793 47.2332 29.0487 48.3903 30.3782C49.3451 31.4752 50.4111 32.6992 52.2231 32.9978C51.9929 35.4309 51.6209 38.5545 51.4545 39.9222ZM52.3583 31.4126C51.1828 31.1729 50.4596 30.3466 49.5835 29.34C48.4878 28.0812 47.1501 26.5451 44.5858 26.2588L44.995 21.5604C49.1889 22.1806 52.418 25.8033 52.418 30.1669C52.418 30.4633 52.3958 30.8941 52.3583 31.4126Z" fill="#3E3E3E"/>
<path d="M18.0361 37.8135C16.4369 37.8135 15.1357 39.1145 15.1357 40.7139C15.1357 42.3132 16.4369 43.6143 18.0361 43.6143C19.6353 43.6143 20.9365 42.3132 20.9365 40.7139C20.9365 39.1146 19.6353 37.8135 18.0361 37.8135ZM18.0361 42.0322C17.3091 42.0322 16.7177 41.4409 16.7177 40.7139C16.7177 39.9869 17.3091 39.3955 18.0361 39.3955C18.7631 39.3955 19.3544 39.9869 19.3544 40.7139C19.3544 41.4409 18.763 42.0322 18.0361 42.0322Z" fill="#FFD347"/>
<path d="M42.6619 37.8135C41.0626 37.8135 39.7615 39.1145 39.7615 40.7139C39.7615 42.3132 41.0626 43.6143 42.6619 43.6143C44.2611 43.6143 45.5623 42.3132 45.5623 40.7139C45.5623 39.1146 44.2611 37.8135 42.6619 37.8135ZM42.6619 42.0322C41.9349 42.0322 41.3435 41.4409 41.3435 40.7139C41.3435 39.9869 41.9349 39.3955 42.6619 39.3955C43.3889 39.3955 43.9802 39.9869 43.9802 40.7139C43.9802 41.4409 43.3889 42.0322 42.6619 42.0322Z" fill="#FFD347"/>
<path d="M7.48835 19.8843H3.62122C3.18426 19.8843 2.8302 20.2384 2.8302 20.6753C2.8302 21.1121 3.18426 21.4663 3.62122 21.4663H7.48835C7.92531 21.4663 8.27937 21.1121 8.27937 20.6753C8.27937 20.2384 7.92531 19.8843 7.48835 19.8843Z" fill="#FFD347"/>
</svg>
