<svg width="54" height="54" viewBox="0 0 54 54" fill="none" xmlns="http://www.w3.org/2000/svg">
<path d="M51.3871 0H48.7742H31.3548H18.6744C17.5483 0 16.5519 0.717677 16.1948 1.78635L15.9204 2.6129H13.0645C11.6239 2.6129 10.4516 3.78523 10.4516 5.22581V6.35371C7.93713 7.10535 6.09677 9.43781 6.09677 12.1935C6.09677 14.013 6.90242 15.6443 8.17055 16.7626C6.22219 18.2442 4.88874 20.4338 4.49594 22.8664C1.91003 23.571 0 25.9348 0 28.7419C0 32.103 2.73571 34.8387 6.09677 34.8387V40.0645H10.0205C10.3445 41.3231 10.8444 42.5267 11.5133 43.6555L8.73581 46.4339L13.6629 51.361L16.4413 48.5835C17.57 49.2524 18.7737 49.7523 20.0323 50.0763V54H27V50.0763C28.2585 49.7523 29.4622 49.2524 30.591 48.5835L33.3694 51.361L38.2965 46.4339L35.5189 43.6555C36.1878 42.5267 36.6878 41.3231 37.0118 40.0645H40.9355V33.0968H37.0118C36.6878 31.8382 36.1878 30.6345 35.5189 29.5058L38.0238 27H48.7742V15.6774V13.9355H51.3871C52.8277 13.9355 54 12.7632 54 11.3226V2.6129C54 1.17232 52.8277 0 51.3871 0ZM39.1936 1.74194C40.6341 1.74194 41.8064 2.91426 41.8064 4.35484C41.8064 5.79542 40.6341 6.96774 39.1936 6.96774C37.753 6.96774 36.5806 5.79542 36.5806 4.35484C36.5806 2.91426 37.753 1.74194 39.1936 1.74194ZM33.0968 1.74194H35.7323C35.1793 2.47181 34.8387 3.37065 34.8387 4.35484C34.8387 6.7561 36.7923 8.70968 39.1936 8.70968C40.1777 8.70968 41.0766 8.36913 41.8064 7.81606V13.9355H33.0968V1.74194ZM25.9688 1.74194C25.6082 2.75313 24.6501 3.48387 23.5161 3.48387C22.3821 3.48387 21.4241 2.75313 21.0635 1.74194H25.9688ZM7.83871 12.1935C7.83871 9.79229 9.79229 7.83871 12.1935 7.83871C14.5948 7.83871 16.5484 9.79229 16.5484 12.1935C16.5484 14.5948 14.5948 16.5484 12.1935 16.5484C11.3008 16.5484 10.4699 16.2766 9.77835 15.8133L9.75484 15.7654C9.74613 15.7697 9.73916 15.775 9.73045 15.7793C8.59035 14.9928 7.83871 13.6803 7.83871 12.1935ZM9.74265 17.7721C9.97171 17.8731 10.2086 17.9611 10.4516 18.0343V24.4846C9.36203 23.3742 7.87355 22.7105 6.29274 22.6591C6.75 20.6506 7.99984 18.8817 9.74265 17.7721ZM6.09677 33.0968C3.69552 33.0968 1.74194 31.1432 1.74194 28.7419C1.74194 26.3407 3.69552 24.3871 6.09677 24.3871C7.41106 24.3871 8.64697 24.9924 9.46742 25.9949L8.73494 26.7274L11.5125 29.5058C10.8435 30.6345 10.3436 31.8382 10.0196 33.0968H6.96774H6.09677ZM35.7097 26.8511L33.2936 29.2671L33.6864 29.8603C34.5574 31.1763 35.1566 32.616 35.4649 34.1411L35.6069 34.8387H39.1936V38.3226H35.6069L35.4649 39.0202C35.1566 40.5453 34.5574 41.985 33.6864 43.301L33.2936 43.8942L35.8342 46.4348L33.3703 48.8987L30.8296 46.3581L30.2365 46.7509C28.9205 47.6219 27.4808 48.2211 25.9557 48.5295L25.2581 48.6714V52.2581H21.7742V48.6714L21.0765 48.5295C19.5515 48.2211 18.1118 47.6219 16.7957 46.7509L16.2026 46.3581L13.662 48.8987L11.198 46.4348L13.7386 43.8942L13.3458 43.301C12.4749 41.985 11.8756 40.5453 11.5673 39.0202L11.4254 38.3226H7.83871V34.8387H11.4254L11.5673 34.1411C11.8756 32.616 12.4749 31.1763 13.3458 29.8603L13.7386 29.2671L11.198 26.7265L13.662 24.2625L16.2026 26.8032L16.7957 26.4104C18.1118 25.5394 19.5515 24.9402 21.0765 24.6318L21.7742 24.4899V20.9032H25.2581V24.4899L25.9557 24.6318C27.4808 24.9402 28.9205 25.5394 30.2365 26.4104L30.8296 26.8032L33.3703 24.2625L35.7097 26.6028V26.8511ZM47.0323 25.2581H36.828L33.3694 21.7995L30.591 24.577C29.4622 23.9081 28.2585 23.4081 27 23.0841V19.1613H20.0323V23.085C18.7737 23.409 17.57 23.9089 16.4413 24.5778L13.6629 21.8003L12.1935 23.2688V18.2903C15.5546 18.2903 18.2903 15.5546 18.2903 12.1935C18.2903 8.83248 15.5546 6.09677 12.1935 6.09677V5.22581C12.1935 4.74503 12.5837 4.35484 13.0645 4.35484H17.1764L17.8479 2.33768C17.9672 1.98058 18.2999 1.74194 18.6744 1.74194H19.2493C19.6543 3.72687 21.4136 5.22581 23.5161 5.22581C25.6186 5.22581 27.378 3.72687 27.783 1.74194H31.3548V11.3452C30.625 10.7922 29.7261 10.4516 28.7419 10.4516C26.3407 10.4516 24.3871 12.4052 24.3871 14.8065C24.3871 17.2077 26.3407 19.1613 28.7419 19.1613C30.8445 19.1613 32.6038 17.6624 33.0088 15.6774H47.0323V25.2581ZM31.3548 14.8065C31.3548 16.247 30.1825 17.4194 28.7419 17.4194C27.3014 17.4194 26.129 16.247 26.129 14.8065C26.129 13.3659 27.3014 12.1935 28.7419 12.1935C30.1825 12.1935 31.3548 13.3659 31.3548 14.8065ZM52.2581 11.3226C52.2581 11.8034 51.8679 12.1935 51.3871 12.1935H48.7742V10.4516H47.0323V12.1935V13.9355H43.5484V4.35484C43.5484 3.37065 43.2078 2.47181 42.6548 1.74194H47.0323V8.70968H48.7742V1.74194H51.3871C51.8679 1.74194 52.2581 2.13213 52.2581 2.6129V11.3226Z" fill="#3E3E3E"/>
<path d="M6.09676 26.1289C4.65618 26.1289 3.48386 27.3012 3.48386 28.7418C3.48386 30.1824 4.65618 31.3547 6.09676 31.3547C7.53734 31.3547 8.70966 30.1824 8.70966 28.7418C8.70966 27.3012 7.53734 26.1289 6.09676 26.1289ZM6.09676 29.6128C5.61598 29.6128 5.22579 29.2226 5.22579 28.7418C5.22579 28.261 5.61598 27.8708 6.09676 27.8708C6.57753 27.8708 6.96773 28.261 6.96773 28.7418C6.96773 29.2226 6.57753 29.6128 6.09676 29.6128Z" fill="#FFD347"/>
<path d="M12.1936 14.8064C13.6341 14.8064 14.8065 13.6341 14.8065 12.1935C14.8065 10.7529 13.6341 9.58057 12.1936 9.58057C10.753 9.58057 9.58066 10.7529 9.58066 12.1935C9.58066 13.6341 10.753 14.8064 12.1936 14.8064ZM12.1936 11.3225C12.6743 11.3225 13.0645 11.7127 13.0645 12.1935C13.0645 12.6742 12.6743 13.0644 12.1936 13.0644C11.7128 13.0644 11.3226 12.6742 11.3226 12.1935C11.3226 11.7127 11.7128 11.3225 12.1936 11.3225Z" fill="#FFD347"/>
<path d="M23.5161 27.8711C18.7136 27.8711 14.8065 31.7783 14.8065 36.5808C14.8065 41.3833 18.7136 45.2904 23.5161 45.2904C25.1675 45.2904 26.7762 44.8254 28.168 43.9448L27.236 42.4737C26.1238 43.1766 24.8383 43.5485 23.5161 43.5485C19.6743 43.5485 16.5484 40.4226 16.5484 36.5808C16.5484 32.7389 19.6743 29.613 23.5161 29.613C27.358 29.613 30.4839 32.7389 30.4839 36.5808C30.4839 38.4324 29.7653 40.1753 28.4606 41.4904L29.6974 42.7167C31.3278 41.0741 32.2258 38.8949 32.2258 36.5808C32.2258 31.7783 28.3187 27.8711 23.5161 27.8711Z" fill="#FFD347"/>
<path d="M23.5162 31.355C20.6341 31.355 18.2903 33.6988 18.2903 36.5808C18.2903 39.4628 20.6341 41.8066 23.5162 41.8066C26.3982 41.8066 28.742 39.4628 28.742 36.5808C28.742 33.6988 26.3982 31.355 23.5162 31.355ZM23.5162 40.0647C21.5948 40.0647 20.0323 38.5021 20.0323 36.5808C20.0323 34.6594 21.5948 33.0969 23.5162 33.0969C25.4375 33.0969 27 34.6594 27 36.5808C27 38.5021 25.4375 40.0647 23.5162 40.0647Z" fill="#FFD347"/>
</svg>
