<svg width="458" height="229" viewBox="0 0 458 229" fill="none" xmlns="http://www.w3.org/2000/svg">
<mask id="path-1-inside-1" fill="white">
<path d="M458 229C458 168.265 433.873 110.018 390.927 67.0726C347.982 24.1267 289.735 4.58533e-06 229 0C168.265 -4.58533e-06 110.018 24.1267 67.0726 67.0725C24.1267 110.018 9.17067e-06 168.265 0 229H67.2449C67.2449 186.1 84.2869 144.957 114.622 114.622C144.957 84.2869 186.1 67.2449 229 67.2449C271.9 67.2449 313.043 84.2869 343.378 114.622C373.713 144.957 390.755 186.1 390.755 229H458Z"/>
</mask>
<path d="M458 229C458 168.265 433.873 110.018 390.927 67.0726C347.982 24.1267 289.735 4.58533e-06 229 0C168.265 -4.58533e-06 110.018 24.1267 67.0726 67.0725C24.1267 110.018 9.17067e-06 168.265 0 229H67.2449C67.2449 186.1 84.2869 144.957 114.622 114.622C144.957 84.2869 186.1 67.2449 229 67.2449C271.9 67.2449 313.043 84.2869 343.378 114.622C373.713 144.957 390.755 186.1 390.755 229H458Z" stroke="#FFD347" stroke-opacity="0.65" stroke-width="154" mask="url(#path-1-inside-1)"/>
</svg>
