<svg width="52" height="52" viewBox="0 0 52 52" fill="none" xmlns="http://www.w3.org/2000/svg">
<path d="M9.96875 15.0312H15.0312V15.875C15.0312 16.0988 15.1201 16.3134 15.2784 16.4716C15.4366 16.6299 15.6512 16.7188 15.875 16.7188H19.25C19.4738 16.7188 19.6884 16.6299 19.8466 16.4716C20.0049 16.3134 20.0938 16.0988 20.0938 15.875V15.0312H26C26.2238 15.0312 26.4384 14.9424 26.5966 14.7841C26.7549 14.6259 26.8438 14.4113 26.8438 14.1875C26.8438 13.9637 26.7549 13.7491 26.5966 13.5909C26.4384 13.4326 26.2238 13.3438 26 13.3438H19.25C19.0262 13.3438 18.8116 13.4326 18.6534 13.5909C18.4951 13.7491 18.4062 13.9637 18.4062 14.1875V15.0312H16.7188V14.1875C16.7188 13.9637 16.6299 13.7491 16.4716 13.5909C16.3134 13.4326 16.0988 13.3438 15.875 13.3438H9.96875C9.74497 13.3438 9.53036 13.4326 9.37213 13.5909C9.2139 13.7491 9.125 13.9637 9.125 14.1875C9.125 14.4113 9.2139 14.6259 9.37213 14.7841C9.53036 14.9424 9.74497 15.0312 9.96875 15.0312Z" fill="#3E3E3E"/>
<path d="M38.6562 33.5938C37.655 33.5938 36.6762 33.8907 35.8437 34.4469C35.0112 35.0032 34.3623 35.7939 33.9791 36.7189C33.5959 37.644 33.4957 38.6619 33.691 39.6439C33.8864 40.6259 34.3685 41.528 35.0765 42.236C35.7845 42.944 36.6866 43.4261 37.6686 43.6215C38.6506 43.8168 39.6685 43.7166 40.5936 43.3334C41.5186 42.9502 42.3093 42.3013 42.8656 41.4688C43.4218 40.6363 43.7187 39.6575 43.7187 38.6562C43.7174 37.314 43.1836 36.0271 42.2345 35.078C41.2854 34.1289 39.9985 33.5951 38.6562 33.5938ZM38.6562 42.0312C37.9887 42.0312 37.3362 41.8333 36.7812 41.4625C36.2262 41.0916 35.7936 40.5645 35.5382 39.9478C35.2827 39.3311 35.2159 38.6525 35.3461 37.9978C35.4763 37.3431 35.7978 36.7418 36.2698 36.2698C36.7418 35.7978 37.3431 35.4763 37.9978 35.3461C38.6525 35.2159 39.3311 35.2827 39.9478 35.5382C40.5645 35.7936 41.0916 36.2262 41.4625 36.7812C41.8333 37.3362 42.0312 37.9887 42.0312 38.6562C42.0312 39.5514 41.6757 40.4098 41.0427 41.0427C40.4098 41.6757 39.5514 42.0312 38.6562 42.0312Z" fill="#3E3E3E"/>
<path d="M50.4688 35.2812H47.3022C47.2541 35.1598 47.206 35.0425 47.1553 34.9277L49.3947 32.6884C49.5528 32.5302 49.6417 32.3156 49.6417 32.0919C49.6417 31.8681 49.5528 31.6536 49.3947 31.4953L45.8172 27.9178C45.6589 27.7597 45.4444 27.6708 45.2206 27.6708C44.9969 27.6708 44.7823 27.7597 44.6241 27.9178L42.3848 30.1572C42.27 30.1065 42.1527 30.0584 42.0312 30.0103V26.8438C42.0312 26.62 41.9424 26.4054 41.7841 26.2471C41.6259 26.0889 41.4113 26 41.1875 26H36.125C35.9012 26 35.6866 26.0889 35.5284 26.2471C35.3701 26.4054 35.2812 26.62 35.2812 26.8438V30.0103C35.1598 30.0584 35.0425 30.1065 34.9277 30.1572L32.6884 27.9178C32.5302 27.7597 32.3156 27.6708 32.0919 27.6708C31.8681 27.6708 31.6536 27.7597 31.4953 27.9178L28.3507 31.0625H21.7812V30.0382C23.1905 29.3168 24.392 28.2471 25.2715 26.9308C26.1511 25.6144 26.6795 24.0951 26.8066 22.517C27.5378 22.337 28.1879 21.9177 28.6533 21.3257C29.1187 20.7337 29.3727 20.003 29.375 19.25C30.0463 19.25 30.6902 18.9833 31.1649 18.5086C31.6396 18.0339 31.9062 17.3901 31.9062 16.7188C31.9062 16.0474 31.6396 15.4036 31.1649 14.9289C30.6902 14.4542 30.0463 14.1875 29.375 14.1875C29.3742 11.6378 28.5485 9.15677 27.0212 7.11512C25.4939 5.07348 23.347 3.58081 20.9012 2.86016C20.8152 2.25893 20.5158 1.70867 20.0578 1.30981C19.5998 0.910954 19.0136 0.690081 18.4062 0.6875H16.7188C16.1105 0.690055 15.5235 0.91155 15.0652 1.31145C14.6069 1.71136 14.3079 2.26292 14.2229 2.86522C11.773 3.57688 9.6212 5.06653 8.09264 7.10913C6.56408 9.15172 5.74179 11.6363 5.75 14.1875C5.07867 14.1875 4.43484 14.4542 3.96014 14.9289C3.48543 15.4036 3.21875 16.0474 3.21875 16.7188C3.21875 17.3901 3.48543 18.0339 3.96014 18.5086C4.43484 18.9833 5.07867 19.25 5.75 19.25C5.75227 20.003 6.00633 20.7337 6.47173 21.3257C6.93714 21.9177 7.58716 22.337 8.31837 22.517C8.44551 24.0951 8.97395 25.6144 9.85349 26.9308C10.733 28.2471 11.9345 29.3168 13.3438 30.0382V31.0625H6.59375C5.02786 31.0643 3.52662 31.6871 2.41937 32.7944C1.31212 33.9016 0.689287 35.4029 0.6875 36.9688V50.4688C0.6875 50.6925 0.776395 50.9071 0.934629 51.0654C1.09286 51.2236 1.30747 51.3125 1.53125 51.3125H29.375C29.5988 51.3125 29.8134 51.2236 29.9716 51.0654C30.1299 50.9071 30.2188 50.6925 30.2188 50.4688C30.2188 50.245 30.1299 50.0304 29.9716 49.8721C29.8134 49.7139 29.5988 49.625 29.375 49.625H24.3125V40.3438C24.3125 40.12 24.2236 39.9054 24.0654 39.7471C23.9071 39.5889 23.6925 39.5 23.4688 39.5H11.6562C11.4325 39.5 11.2179 39.5889 11.0596 39.7471C10.9014 39.9054 10.8125 40.12 10.8125 40.3438V49.625H9.125V32.75H13.4281C13.6218 33.7037 14.1392 34.5611 14.8927 35.1769C15.6461 35.7928 16.5894 36.1292 17.5625 36.1292C18.5356 36.1292 19.4789 35.7928 20.2323 35.1769C20.9858 34.5611 21.5032 33.7037 21.6969 32.75H27.9803L30.158 34.9277C30.1074 35.0425 30.0593 35.1598 30.0112 35.2812H26.8438C26.62 35.2812 26.4054 35.3701 26.2471 35.5284C26.0889 35.6866 26 35.9012 26 36.125V41.1875C26 41.4113 26.0889 41.6259 26.2471 41.7841C26.4054 41.9424 26.62 42.0312 26.8438 42.0312H30.0103C30.0584 42.1527 30.1065 42.27 30.1572 42.3848L27.9178 44.6241C27.7597 44.7823 27.6708 44.9969 27.6708 45.2206C27.6708 45.4444 27.7597 45.6589 27.9178 45.8172L31.4953 49.3947C31.6536 49.5528 31.8681 49.6417 32.0919 49.6417C32.3156 49.6417 32.5302 49.5528 32.6884 49.3947L34.9277 47.1553C35.0425 47.206 35.1598 47.2541 35.2812 47.3022V50.4688C35.2812 50.6925 35.3701 50.9071 35.5284 51.0654C35.6866 51.2236 35.9012 51.3125 36.125 51.3125H41.1875C41.4113 51.3125 41.6259 51.2236 41.7841 51.0654C41.9424 50.9071 42.0312 50.6925 42.0312 50.4688V47.3022C42.1527 47.2541 42.27 47.206 42.3848 47.1553L44.6241 49.3947C44.7853 49.5471 44.9988 49.632 45.2206 49.632C45.4425 49.632 45.6559 49.5471 45.8172 49.3947L49.3947 45.8172C49.5528 45.6589 49.6417 45.4444 49.6417 45.2206C49.6417 44.9969 49.5528 44.7823 49.3947 44.6241L47.1553 42.3848C47.206 42.27 47.2541 42.1527 47.3022 42.0312H50.4688C50.6925 42.0312 50.9071 41.9424 51.0654 41.7841C51.2236 41.6259 51.3125 41.4113 51.3125 41.1875V36.125C51.3125 35.9012 51.2236 35.6866 51.0654 35.5284C50.9071 35.3701 50.6925 35.2812 50.4688 35.2812ZM12.5 41.1875H22.625V49.625H12.5V41.1875ZM26.8438 20.7105V19.25H27.6875C27.6873 19.5461 27.6093 19.8369 27.4612 20.0932C27.3131 20.3496 27.1002 20.5625 26.8438 20.7105ZM4.90625 16.7188C4.90625 16.495 4.99514 16.2804 5.15338 16.1221C5.31161 15.9639 5.52622 15.875 5.75 15.875C5.75 16.0988 5.83889 16.3134 5.99713 16.4716C6.15536 16.6299 6.36997 16.7188 6.59375 16.7188C6.81753 16.7188 7.03214 16.6299 7.19037 16.4716C7.34861 16.3134 7.4375 16.0988 7.4375 15.875V14.1875C7.43032 12.0924 8.07668 10.0472 9.28656 8.33674C10.4964 6.62627 12.2096 5.33568 14.1875 4.64469V9.96875C14.1875 10.1925 14.2764 10.4071 14.4346 10.5654C14.5929 10.7236 14.8075 10.8125 15.0312 10.8125C15.255 10.8125 15.4696 10.7236 15.6279 10.5654C15.7861 10.4071 15.875 10.1925 15.875 9.96875V3.21875C15.875 2.99497 15.9639 2.78036 16.1221 2.62213C16.2804 2.46389 16.495 2.375 16.7188 2.375H18.4062C18.63 2.375 18.8446 2.46389 19.0029 2.62213C19.1611 2.78036 19.25 2.99497 19.25 3.21875V9.96875C19.25 10.1925 19.3389 10.4071 19.4971 10.5654C19.6554 10.7236 19.87 10.8125 20.0938 10.8125C20.3175 10.8125 20.5321 10.7236 20.6904 10.5654C20.8486 10.4071 20.9375 10.1925 20.9375 9.96875V4.65312C22.9128 5.34558 24.6237 6.63538 25.8332 8.34373C27.0426 10.0521 27.6907 12.0944 27.6875 14.1875V15.875C27.6875 16.0988 27.7764 16.3134 27.9346 16.4716C28.0929 16.6299 28.3075 16.7188 28.5312 16.7188C28.755 16.7188 28.9696 16.6299 29.1279 16.4716C29.2861 16.3134 29.375 16.0988 29.375 15.875C29.5988 15.875 29.8134 15.9639 29.9716 16.1221C30.1299 16.2804 30.2188 16.495 30.2188 16.7188C30.2188 16.9425 30.1299 17.1571 29.9716 17.3154C29.8134 17.4736 29.5988 17.5625 29.375 17.5625H5.75C5.52622 17.5625 5.31161 17.4736 5.15338 17.3154C4.99514 17.1571 4.90625 16.9425 4.90625 16.7188ZM7.4375 19.25H8.28125V20.7105C8.02485 20.5625 7.8119 20.3496 7.6638 20.0932C7.5157 19.8369 7.43766 19.5461 7.4375 19.25ZM9.96875 21.7812V19.25H25.1562V21.7812C25.1562 23.7952 24.3562 25.7267 22.9321 27.1508C21.508 28.5749 19.5765 29.375 17.5625 29.375C15.5485 29.375 13.617 28.5749 12.1929 27.1508C10.7688 25.7267 9.96875 23.7952 9.96875 21.7812ZM2.375 36.9688C2.37634 35.8503 2.82124 34.778 3.61212 33.9871C4.403 33.1962 5.47528 32.7513 6.59375 32.75H7.4375V49.625H2.375V36.9688ZM17.5625 34.4375C16.8912 34.4375 16.2473 34.1708 15.7726 33.6961C15.2979 33.2214 15.0312 32.5776 15.0312 31.9062V30.7031C16.6847 31.1823 18.4403 31.1823 20.0938 30.7031V31.9062C20.0938 32.5776 19.8271 33.2214 19.3524 33.6961C18.8777 34.1708 18.2338 34.4375 17.5625 34.4375ZM49.625 40.3438H46.7056C46.527 40.3438 46.353 40.4005 46.2086 40.5057C46.0643 40.6109 45.957 40.7592 45.9024 40.9293C45.7712 41.351 45.6003 41.7592 45.3919 42.1485C45.3041 42.3086 45.2707 42.4929 45.2965 42.6736C45.3224 42.8544 45.4062 43.0218 45.5353 43.1509L47.6051 45.2206L45.2206 47.6051L43.1509 45.5353C43.0218 45.4062 42.8544 45.3224 42.6736 45.2965C42.4929 45.2707 42.3086 45.3041 42.1485 45.3919C41.7592 45.6003 41.351 45.7712 40.9293 45.9024C40.7592 45.957 40.6109 46.0643 40.5057 46.2086C40.4005 46.353 40.3438 46.527 40.3438 46.7056V49.625H36.9688V46.7056C36.9687 46.527 36.912 46.353 36.8068 46.2086C36.7016 46.0643 36.5533 45.957 36.3832 45.9024C35.9615 45.7712 35.5533 45.6003 35.164 45.3919C35.0039 45.3041 34.8196 45.2707 34.6389 45.2965C34.4581 45.3224 34.2907 45.4062 34.1616 45.5353L32.0919 47.6051L29.7074 45.2206L31.7772 43.1509C31.9063 43.0218 31.9901 42.8544 32.016 42.6736C32.0418 42.4929 32.0084 42.3086 31.9206 42.1485C31.7122 41.7592 31.5413 41.351 31.4101 40.9293C31.3555 40.7592 31.2482 40.6109 31.1039 40.5057C30.9595 40.4005 30.7855 40.3438 30.6069 40.3438H27.6875V36.9688H30.6069C30.7855 36.9687 30.9595 36.912 31.1039 36.8068C31.2482 36.7016 31.3555 36.5533 31.4101 36.3832C31.5413 35.9615 31.7122 35.5533 31.9206 35.164C32.0084 35.0039 32.0418 34.8196 32.016 34.6389C31.9901 34.4581 31.9063 34.2907 31.7772 34.1616L29.7074 32.0919L32.0919 29.7074L34.1616 31.7772C34.2907 31.9063 34.4581 31.9901 34.6389 32.016C34.8196 32.0418 35.0039 32.0084 35.164 31.9206C35.5533 31.7122 35.9615 31.5413 36.3832 31.4101C36.5533 31.3555 36.7016 31.2482 36.8068 31.1039C36.912 30.9595 36.9687 30.7855 36.9688 30.6069V27.6875H40.3438V30.6069C40.3438 30.7855 40.4005 30.9595 40.5057 31.1039C40.6109 31.2482 40.7592 31.3555 40.9293 31.4101C41.351 31.5413 41.7592 31.7122 42.1485 31.9206C42.3086 32.0084 42.4929 32.0418 42.6736 32.016C42.8544 31.9901 43.0218 31.9063 43.1509 31.7772L45.2206 29.7074L47.6051 32.0919L45.5353 34.1616C45.4062 34.2907 45.3224 34.4581 45.2965 34.6389C45.2707 34.8196 45.3041 35.0039 45.3919 35.164C45.6003 35.5533 45.7712 35.9615 45.9024 36.3832C45.957 36.5533 46.0643 36.7016 46.2086 36.8068C46.353 36.912 46.527 36.9687 46.7056 36.9688H49.625V40.3438Z" fill="#3E3E3E"/>
<path d="M39.5 28.5312H37.8125V30.2188H39.5V28.5312Z" fill="#3E3E3E"/>
<path d="M32.0938 30.9005L30.9006 32.0938L32.0938 33.287L33.287 32.0938L32.0938 30.9005Z" fill="#3E3E3E"/>
<path d="M30.2188 37.8125H28.5312V39.5H30.2188V37.8125Z" fill="#3E3E3E"/>
<path d="M32.0936 44.0255L30.9004 45.2188L32.0936 46.412L33.2868 45.2188L32.0936 44.0255Z" fill="#3E3E3E"/>
<path d="M39.5 47.0938H37.8125V48.7812H39.5V47.0938Z" fill="#3E3E3E"/>
<path d="M45.2188 44.0255L44.0255 45.2188L45.2188 46.412L46.412 45.2188L45.2188 44.0255Z" fill="#3E3E3E"/>
<path d="M45.219 30.9005L44.0257 32.0938L45.219 33.287L46.4122 32.0938L45.219 30.9005Z" fill="#3E3E3E"/>
<path d="M48.7812 37.8125H47.0938V39.5H48.7812V37.8125Z" fill="#3E3E3E"/>
<path d="M50.4688 13.3438H48.9871L50.0359 12.295C50.1941 12.1367 50.2829 11.9222 50.2829 11.6984C50.2829 11.4747 50.1941 11.2601 50.0359 11.1019L47.6481 8.71409C47.4899 8.55591 47.2753 8.46706 47.0516 8.46706C46.8278 8.46706 46.6133 8.55591 46.455 8.71409L45.4062 9.76287V8.28125C45.4062 8.05747 45.3174 7.84286 45.1591 7.68463C45.0009 7.5264 44.7863 7.4375 44.5625 7.4375H41.1875C40.9637 7.4375 40.7491 7.5264 40.5909 7.68463C40.4326 7.84286 40.3438 8.05747 40.3438 8.28125V9.76287L39.295 8.71409C39.1367 8.55591 38.9222 8.46706 38.6984 8.46706C38.4747 8.46706 38.2601 8.55591 38.1019 8.71409L35.7141 11.1019C35.5559 11.2601 35.4671 11.4747 35.4671 11.6984C35.4671 11.9222 35.5559 12.1367 35.7141 12.295L36.7629 13.3438H35.2812C35.0575 13.3438 34.8429 13.4326 34.6846 13.5909C34.5264 13.7491 34.4375 13.9637 34.4375 14.1875V17.5625C34.4375 17.7863 34.5264 18.0009 34.6846 18.1591C34.8429 18.3174 35.0575 18.4062 35.2812 18.4062H36.7629L35.7141 19.455C35.5559 19.6133 35.4671 19.8278 35.4671 20.0516C35.4671 20.2753 35.5559 20.4899 35.7141 20.6481L38.1019 23.0359C38.2601 23.1941 38.4747 23.2829 38.6984 23.2829C38.9222 23.2829 39.1367 23.1941 39.295 23.0359L40.3438 21.9871V23.4688C40.3438 23.6925 40.4326 23.9071 40.5909 24.0654C40.7491 24.2236 40.9637 24.3125 41.1875 24.3125H44.5625C44.7863 24.3125 45.0009 24.2236 45.1591 24.0654C45.3174 23.9071 45.4062 23.6925 45.4062 23.4688V21.9871L46.455 23.0359C46.6133 23.1941 46.8278 23.2829 47.0516 23.2829C47.2753 23.2829 47.4899 23.1941 47.6481 23.0359L50.0359 20.6481C50.1941 20.4899 50.2829 20.2753 50.2829 20.0516C50.2829 19.8278 50.1941 19.6133 50.0359 19.455L48.9871 18.4062H50.4688C50.6925 18.4062 50.9071 18.3174 51.0654 18.1591C51.2236 18.0009 51.3125 17.7863 51.3125 17.5625V14.1875C51.3125 13.9637 51.2236 13.7491 51.0654 13.5909C50.9071 13.4326 50.6925 13.3438 50.4688 13.3438ZM49.625 16.7188H47.6422C47.4607 16.7187 47.284 16.7773 47.1384 16.8856C46.9928 16.994 46.886 17.1465 46.8339 17.3203C46.7975 17.4371 46.7501 17.5501 46.6921 17.6578C46.6087 17.8171 46.5784 17.9989 46.6056 18.1766C46.6328 18.3544 46.716 18.5188 46.8432 18.6459L48.2463 20.049L47.0516 21.2463L45.6484 19.8406C45.5213 19.7135 45.3569 19.6302 45.1792 19.6031C45.0014 19.5759 44.8197 19.6062 44.6604 19.6896C44.5527 19.7475 44.4397 19.795 44.3229 19.8313C44.1481 19.8831 43.9948 19.9901 43.8859 20.1362C43.777 20.2824 43.7184 20.4599 43.7188 20.6422V22.625H42.0312V20.6422C42.0313 20.4607 41.9727 20.284 41.8644 20.1384C41.756 19.9928 41.6035 19.886 41.4297 19.8339C41.3129 19.7975 41.1999 19.7501 41.0922 19.6921C40.9329 19.6087 40.7511 19.5784 40.5734 19.6056C40.3956 19.6328 40.2312 19.716 40.1041 19.8432L38.6984 21.2463L37.5037 20.0516L38.9094 18.6484C39.0365 18.5213 39.1198 18.3569 39.1469 18.1792C39.1741 18.0014 39.1438 17.8197 39.0604 17.6604C39.0025 17.5527 38.955 17.4397 38.9187 17.3229C38.8669 17.1481 38.7599 16.9948 38.6138 16.8859C38.4676 16.777 38.2901 16.7184 38.1078 16.7188H36.125V15.0312H38.1078C38.2893 15.0313 38.466 14.9727 38.6116 14.8644C38.7572 14.756 38.864 14.6035 38.9161 14.4297C38.9525 14.3129 38.9999 14.1999 39.0579 14.0922C39.1413 13.9329 39.1716 13.7511 39.1444 13.5734C39.1172 13.3956 39.034 13.2312 38.9068 13.1041L37.5037 11.6984L38.6984 10.5037L40.1016 11.9094C40.2287 12.0365 40.3931 12.1198 40.5708 12.1469C40.7486 12.1741 40.9303 12.1438 41.0896 12.0604C41.1973 12.0025 41.3103 11.955 41.4271 11.9187C41.6019 11.8669 41.7552 11.7599 41.8641 11.6138C41.973 11.4676 42.0316 11.2901 42.0312 11.1078V9.125H43.7188V11.1078C43.7187 11.2893 43.7773 11.466 43.8856 11.6116C43.994 11.7572 44.1465 11.864 44.3203 11.9161C44.4371 11.9525 44.5501 11.9999 44.6578 12.0579C44.8171 12.1413 44.9989 12.1716 45.1766 12.1444C45.3544 12.1172 45.5188 12.034 45.6459 11.9068L47.049 10.5037L48.2438 11.6984L46.8406 13.1016C46.7135 13.2287 46.6302 13.3931 46.6031 13.5708C46.5759 13.7486 46.6062 13.9303 46.6896 14.0896C46.7475 14.1973 46.795 14.3103 46.8313 14.4271C46.8831 14.6019 46.9901 14.7552 47.1362 14.8641C47.2824 14.973 47.4599 15.0316 47.6422 15.0312H49.625V16.7188Z" fill="#FFD347"/>
<path d="M42.875 12.5C42.2075 12.5 41.555 12.6979 40.9999 13.0688C40.4449 13.4396 40.0123 13.9667 39.7569 14.5834C39.5015 15.2001 39.4346 15.8787 39.5648 16.5334C39.6951 17.1881 40.0165 17.7895 40.4885 18.2615C40.9605 18.7335 41.5619 19.0549 42.2166 19.1852C42.8712 19.3154 43.5498 19.2485 44.1665 18.9931C44.7832 18.7376 45.3103 18.3051 45.6812 17.75C46.052 17.195 46.25 16.5425 46.25 15.875C46.25 14.9799 45.8944 14.1215 45.2615 13.4885C44.6285 12.8556 43.7701 12.5 42.875 12.5ZM42.875 17.5625C42.5412 17.5625 42.215 17.4635 41.9375 17.2781C41.66 17.0927 41.4437 16.8291 41.3159 16.5208C41.1882 16.2124 41.1548 15.8731 41.2199 15.5458C41.285 15.2184 41.4457 14.9178 41.6817 14.6818C41.9178 14.4458 42.2184 14.285 42.5458 14.2199C42.8731 14.1548 43.2124 14.1882 43.5208 14.316C43.8291 14.4437 44.0927 14.66 44.2781 14.9375C44.4635 15.215 44.5625 15.5412 44.5625 15.875C44.5625 16.3226 44.3847 16.7518 44.0682 17.0682C43.7518 17.3847 43.3225 17.5625 42.875 17.5625Z" fill="#FFD347"/>
</svg>
