<svg width="54" height="54" viewBox="0 0 54 54" fill="none" xmlns="http://www.w3.org/2000/svg">
<path d="M33.5568 0H1.12431V54H41.6235V8.06836L33.5568 0ZM33.7496 3.375L38.2485 7.87472H33.7496V3.375ZM39.3757 51.7489H3.37459V2.25028H31.4985V10.125H39.3757V51.7489Z" fill="#3E3E3E"/>
<path d="M33.7496 39.3765H26.9996C26.3783 39.3765 25.8749 39.8791 25.8749 40.5003C25.8749 41.1215 26.3783 41.6242 26.9996 41.6242H33.7496C34.3709 41.6242 34.8735 41.1215 34.8735 40.5003C34.8735 39.8791 34.3709 39.3765 33.7496 39.3765Z" fill="#3E3E3E"/>
<path d="M33.7495 20.25H8.99983C8.37778 20.25 7.87427 20.7534 7.87427 21.3747C7.87427 21.996 8.37767 22.5003 8.99983 22.5003H33.7495C34.3709 22.5003 34.8734 21.996 34.8734 21.3747C34.8734 20.7534 34.3709 20.25 33.7495 20.25Z" fill="#3E3E3E"/>
<path d="M33.7495 27H8.99983C8.37778 27 7.87427 27.5034 7.87427 28.1247C7.87427 28.7468 8.37767 29.2511 8.99983 29.2511H33.7495C34.3709 29.2511 34.8734 28.7469 34.8734 28.1247C34.8734 27.5034 34.3709 27 33.7495 27Z" fill="#3E3E3E"/>
<path d="M21.3743 13.5H8.99983C8.37778 13.5 7.87427 14.0034 7.87427 14.6247C7.87427 15.246 8.37778 15.7503 8.99983 15.7503H21.3743C21.9956 15.7503 22.4998 15.246 22.4998 14.6247C22.4998 14.0034 21.9956 13.5 21.3743 13.5Z" fill="#3E3E3E"/>
<path d="M13.4995 33.75C10.3932 33.75 7.87427 36.2681 7.87427 39.3761C7.87427 41.2153 8.75841 42.8501 10.1245 43.875V49.5011L13.4995 48.3739L16.8745 49.5011V43.875C18.2407 42.8499 19.1248 41.2152 19.1248 39.3761C19.1248 36.2681 16.6059 33.75 13.4995 33.75ZM14.6243 46.3782L14.2106 46.2414L13.4995 46.0041L12.7876 46.2414L12.3748 46.3782V44.8868C12.7382 44.9609 13.114 44.9988 13.4995 44.9988C13.8851 44.9988 14.2609 44.9609 14.6243 44.8868V46.3782ZM13.4995 42.7511C11.6382 42.7511 10.1245 41.235 10.1245 39.3761C10.1245 37.514 11.6382 36.0011 13.4995 36.0011C15.3609 36.0011 16.8745 37.514 16.8745 39.3761C16.8745 41.235 15.361 42.7511 13.4995 42.7511Z" fill="#3E3E3E"/>
<path d="M52.8757 13.5001C52.8757 11.0142 50.8603 8.99951 48.3734 8.99951C45.8884 8.99951 43.8746 11.0142 43.8746 13.5001V43.8751H45.2703L43.8746 48.7497L48.3734 51.7491L52.8757 48.7497L51.4782 43.8751H52.8757V13.5001ZM48.3734 49.0463L46.4899 47.7906L47.6105 43.8751H49.1381L50.2587 47.7906L48.3734 49.0463ZM50.6246 41.6239H46.1257V13.5001C46.1257 12.2591 47.1342 11.2498 48.3734 11.2498C49.616 11.2498 50.6246 12.2591 50.6246 13.5001V41.6239Z" fill="#FFD347"/>
<path d="M13.4996 38.2485C12.8782 38.2485 12.3748 38.7528 12.3748 39.3758C12.3748 39.9954 12.8782 40.4997 13.4996 40.4997C14.1209 40.4997 14.6243 39.9954 14.6243 39.3758C14.6243 38.7529 14.1209 38.2485 13.4996 38.2485Z" fill="#3E3E3E"/>
</svg>
