<svg width="21" height="21" viewBox="0 0 21 21" fill="none" xmlns="http://www.w3.org/2000/svg">
<g clip-path="url(#clip0)">
<path d="M10.5078 1.75C15.3275 1.75 19.2487 5.67525 19.2487 10.5C19.2487 15.3247 15.3275 19.25 10.5078 19.25C5.68808 19.25 1.76692 15.3247 1.76692 10.5C1.76692 5.67525 5.68808 1.75 10.5078 1.75ZM10.5078 0C4.71522 0 0.0187378 4.70138 0.0187378 10.5C0.0187378 16.2986 4.71522 21 10.5078 21C16.3004 21 20.9969 16.2986 20.9969 10.5C20.9969 4.70138 16.3004 0 10.5078 0ZM15.6195 10.9016C15.7961 10.9349 15.7961 11.193 15.6204 11.2271C13.9535 11.543 10.3365 12.1993 9.8977 12.1993C9.26923 12.1993 8.76051 11.69 8.76051 11.0609C8.76051 10.6129 9.43356 6.29475 9.74386 4.5465C9.77358 4.3785 10.0166 4.38812 10.0437 4.55875L10.9046 10.017L15.6195 10.9016Z" fill="#06609C"/>
</g>
<defs>
<clipPath id="clip0">
<rect width="20.9781" height="21" fill="white" transform="translate(0.0187378)"/>
</clipPath>
</defs>
</svg>
