<svg width="22" height="21" viewBox="0 0 22 21" fill="none" xmlns="http://www.w3.org/2000/svg">
<path d="M18.411 13.137C17.6528 12.3877 16.7063 12.3877 15.953 13.137C15.3783 13.7074 14.8036 14.2778 14.2386 14.8579C14.0841 15.0174 13.9537 15.0513 13.7654 14.9449C13.3935 14.7419 12.9976 14.5775 12.6402 14.3552C10.9742 13.3062 9.57856 11.9575 8.34231 10.4396C7.72901 9.68553 7.18332 8.87825 6.80182 7.96946C6.72456 7.78576 6.73904 7.66491 6.88875 7.51506C7.46341 6.95915 8.02359 6.38874 8.58859 5.81833C9.37573 5.02555 9.37573 4.09742 8.58376 3.29981C8.13465 2.84542 7.68555 2.40069 7.23644 1.94629C6.77285 1.48223 6.31408 1.01333 5.84566 0.554099C5.08749 -0.185503 4.14099 -0.185503 3.38765 0.558933C2.80816 1.12934 2.25281 1.71426 1.66366 2.275C1.11797 2.79224 0.842712 3.4255 0.784762 4.1651C0.693009 5.36876 0.987585 6.50475 1.40289 7.61174C2.25281 9.90306 3.54701 11.9382 5.11647 13.8041C7.23644 16.3274 9.76689 18.3239 12.7271 19.7644C14.06 20.4122 15.4411 20.9101 16.9429 20.9923C17.9764 21.0503 18.8746 20.7892 19.5941 19.9819C20.0867 19.4309 20.642 18.9281 21.1636 18.4012C21.9362 17.6181 21.9411 16.6707 21.1732 15.8972C20.2557 14.9739 19.3333 14.0555 18.411 13.137Z" fill="#06609C"/>
</svg>
